<?xml version="1.0" encoding="UTF-8"?>
<svg width="20px" height="20px" viewBox="0 0 20 20" version="1.1" xmlns="http://www.w3.org/2000/svg" xmlns:xlink="http://www.w3.org/1999/xlink">
    <!-- Generator: Sketch 56.3 (81716) - https://sketch.com -->
    <title>Group 13</title>
    <desc>Created with Sketch.</desc>
    <g id="Marshmello_landing-page" stroke="none" stroke-width="1" fill="none" fill-rule="evenodd">
        <g id="Mobile" transform="translate(-31.000000, -2361.000000)" fill="#000000" fill-rule="nonzero">
            <g id="Group-23" transform="translate(31.000000, 2354.000000)">
                <g id="Group-13" transform="translate(0.000000, 7.000000)">
                    <polygon id="Path-Copy" points="5.9 8.1 4.5 9.5 9 14 19 4 17.6 2.6 9 11.2"></polygon>
                    <path d="M18,10 C18,14.4 14.4,18 10,18 C5.6,18 2,14.4 2,10 C2,5.6 5.6,2 10,2 C10.8,2 11.5,2.1 12.2,2.3 L13.8000392,0.7 C12.6,0.3 11.3,0 10,0 C4.5,0 0,4.5 0,10 C0,15.5 4.5,20 10,20 C15.5,20 20,15.5 20,10 L18,10 Z" id="Path-Copy-2"></path>
                </g>
            </g>
        </g>
    </g>
</svg>