<?xml version="1.0" encoding="UTF-8"?>
<svg width="22px" height="22px" viewBox="0 0 22 22" version="1.1" xmlns="http://www.w3.org/2000/svg" xmlns:xlink="http://www.w3.org/1999/xlink">
    <!-- Generator: Sketch 56.3 (81716) - https://sketch.com -->
    <title>facebook</title>
    <desc>Created with Sketch.</desc>
    <g id="Marshmello_landing-page" stroke="none" stroke-width="1" fill="none" fill-rule="evenodd">
        <g id="Mobile" transform="translate(-127.000000, -5099.000000)" fill-rule="nonzero">
            <g id="Group-17" transform="translate(0.000000, 4968.000000)">
                <g id="Group-3" transform="translate(127.000000, 131.000000)">
                    <g id="Group">
                        <g id="facebook">
                            <path d="M19.25,0 L2.75,0 C1.233375,0 0,1.233375 0,2.75 L0,19.25 C0,20.766625 1.233375,22 2.75,22 L19.25,22 C20.766625,22 22,20.766625 22,19.25 L22,2.75 C22,1.233375 20.766625,0 19.25,0 Z" id="Path" fill="#FFFFFF"></path>
                            <path d="M18,10.9230769 L14.6666667,10.9230769 L14.6666667,8.15384615 C14.6666667,7.38953846 15.264,7.46153846 16,7.46153846 L17.3333333,7.46153846 L17.3333333,4 L14.6666667,4 C12.4573333,4 10.6666667,5.85953846 10.6666667,8.15384615 L10.6666667,10.9230769 L8,10.9230769 L8,14.3846154 L10.6666667,14.3846154 L10.6666667,22 L14.6666667,22 L14.6666667,14.3846154 L16.6666667,14.3846154 L18,10.9230769 Z" id="Path" fill="#E01066"></path>
                        </g>
                    </g>
                </g>
            </g>
        </g>
    </g>
</svg>