<?xml version="1.0" encoding="UTF-8"?>
<svg width="390px" height="316px" viewBox="0 0 390 316" version="1.1" xmlns="http://www.w3.org/2000/svg" xmlns:xlink="http://www.w3.org/1999/xlink">
    <!-- Generator: Sketch 56.3 (81716) - https://sketch.com -->
    <title>Section_3</title>
    <desc>Created with Sketch.</desc>
    <defs>
        <polygon id="path-1" points="0 0 390 0 390 316 0 316"></polygon>
        <polygon id="path-3" points="0 341 390 341 390 -1 0 -1"></polygon>
    </defs>
    <g id="Marshmello_landing-page" stroke="none" stroke-width="1" fill="none" fill-rule="evenodd">
        <g id="Marshmello_landngpage" transform="translate(-1017.000000, -2248.000000)">
            <g id="Section_3" transform="translate(1017.000000, 2248.000000)">
                <mask id="mask-2" fill="white">
                    <use xlink:href="#path-1"></use>
                </mask>
                <g id="Clip-2"></g>
                <path d="M390,296.053027 L390,286.031125 C387.981958,279.647796 385.133471,273.732478 381.531969,268.823943 C374.321221,258.996943 361.28864,255.435338 356.617624,242.767992 C354.832843,237.928977 354.72444,232.363737 355.001255,227.023191 C356.265314,202.641902 363.226347,178.966975 361.257668,154.293955 C360.225902,141.370878 356.493735,128.41056 349.199749,119.399166 C329.69395,95.3009181 294.705852,101.51045 270.378046,103.66802 C257.534204,104.807635 244.570343,106.191807 231.837808,103.757402 C219.104304,101.321756 206.401773,94.6392467 198.000526,82.1270769 C188.643008,68.1922515 185.715153,48.9814343 177.993362,33.4849154 C161.460907,0.309478939 123.560441,-8.94026574 96.2321904,8.99562356 C77.3226087,21.4072391 63.8215719,45.1330639 57.337706,70.6738298 C48.3179797,106.196772 61.9874286,148.972031 39.7618707,178.726142 C32.2326883,188.803907 22.2170077,195.33124 14.5232848,205.200448 C1.55168144,221.845271 -3.42712229,247.126582 2.44020046,269.104502 C3.35194873,272.520862 4.52599401,275.85653 5.97298304,279.068057 C13.7412332,296.307516 27.4174572,306.372867 41.0481907,316 L374.448014,316 C383.037031,316 390,307.069298 390,296.053027" id="Fill-1" fill="#EAF8FF" mask="url(#mask-2)"></path>
                <path d="M246.90564,27.6201832 C264.21386,24.2349767 282.710316,34.949621 292.197835,53.8583283 C299.496447,68.405399 302.048882,87.4333649 312.64149,98.1244059 C319.331965,104.878669 328.064388,107.002964 335.964369,111.062727 C345.843455,116.139916 354.856259,124.765049 360.192203,136.592774 C365.52718,148.421741 366.77536,163.609827 362.139402,175.915829 C354.655158,195.777363 335.465484,202.60989 322.954683,217.729651 C299.456807,246.126874 302.415312,299.641709 277.172304,325.450026 C263.885137,339.034331 245.586882,341.484103 228.692466,339.293967 C225.698188,338.906377 222.638166,338.359775 219.986147,336.533627 C216.420472,334.078886 214.000493,329.606687 211.884098,325.176725 C208.245911,317.559079 205.088239,309.562538 202.451689,301.291453 C199.557962,292.212889 197.255936,282.713192 193.098559,274.484345 C183.243645,254.978102 162.719743,245.616298 145.497571,252.770575 C137.027159,256.29119 129.68794,263.183346 121.693209,268.217055 C113.105811,273.625931 103.70434,276.889395 94.166546,277.772654 C79.9270498,279.09071 63.1969952,272.695465 58.2816232,255.473771 C54.5941274,242.550357 59.2407202,227.420658 67.401746,218.50359 C75.5627718,209.586521 86.5208415,205.99137 97.2091652,205.05345 C108.86432,204.029813 120.667401,205.8659 131.795633,210.432512 C141.059814,214.233882 150.138363,219.971962 159.864689,219.940905 C166.157796,219.921028 172.345519,217.430262 177.905767,213.640073 C196.940748,200.666968 209.047414,170.626211 205.884908,143.25014 C202.287327,112.096302 198.108681,81.5387577 214.052701,54.1726245 C221.980721,40.5647157 233.68035,30.2066051 246.90564,27.6201832 Z" id="Stroke-4" stroke="#212882" stroke-linecap="round" stroke-linejoin="round" stroke-dasharray="0,3.999" mask="url(#mask-2)"></path>
                <path d="M47.4857283,286.950561 C40.9018021,284.599639 33.9828553,281.613769 29.6930505,274.752357 C25.4032457,267.889703 25.3454835,255.981016 31.260331,251.568688 C34.7193231,248.989135 39.2112955,249.560712 42.6086746,246.84572 C46.1206153,244.038779 47.6339845,238.142836 47.0611762,232.863202 C46.4874052,227.582325 44.1615146,222.869298 41.4216617,218.878198 C34.6779269,209.05701 25.392656,202.805695 17.7718986,194.118964 C10.1511413,185.43099 3.95037092,172.328203 6.63823784,159.670253 C8.19492867,152.337911 12.7966492,146.208367 18.425574,143.968032 C24.0554614,141.727698 30.5325275,143.448643 35.0187238,148.377875 C42.3920664,156.476876 43.307597,170.382356 45.4727162,182.563163 C46.5307268,188.513779 48.1288139,194.602319 51.5464097,198.824535 C54.9640055,203.046752 60.6468417,204.744087 64.4986166,201.197824 C67.755441,198.200771 68.7682046,192.666412 70.6887972,188.137284 C74.7408143,178.570821 86.0670157,173.696261 91.8018378,181.698342 C97.3797392,189.481733 93.7859688,202.262697 88.6191415,210.505834 C83.4523142,218.746487 76.6200107,226.560942 75.9470812,237.127665 C75.1355226,249.897446 83.5514726,259.996967 90.1007415,269.624316 C94.8574572,276.619924 99.0192225,284.61455 100.624049,293.688959 C103.076053,307.548465 93.211235,336.471515 80.4332774,322.093862 C75.9605591,317.06274 73.7328642,308.443107 69.8579844,302.62296 C63.8102839,293.539852 56.2058925,290.064414 47.4857283,286.950561" id="Fill-6" fill="#C6EDFE" mask="url(#mask-2)"></path>
                <path d="M207.01206,217.394634 C206.668336,201.018624 213.687895,183.230225 226.043447,178.768218 C232.673517,176.374486 239.842054,178.032832 246.560733,176.087536 C258.616379,172.595693 267.021543,157.964984 270.285457,142.754163 C273.549372,127.543343 272.752868,111.480369 272.903795,95.711798 C273.055695,79.9419847 274.378983,63.4392695 281.179454,50.2706369 C285.704337,41.5093535 294.909901,34.4449243 301.918748,39.9329933 C306.33847,43.393781 308.057088,50.8085124 307.325824,57.3574258 C306.594559,63.905097 303.870086,69.784461 301.063821,75.3470623 C298.615885,80.1966371 296.061813,84.9592573 293.405501,89.6262277 C288.401546,98.4148396 282.732539,108.212123 283.955534,118.96218 C285.340166,131.137047 297.185488,139.234992 305.899322,133.965551 C310.190512,131.36934 313.289868,126.447717 317.049407,122.744699 C320.806998,119.040439 326.151755,116.575901 330.227754,119.683902 C335.323238,123.569524 334.887011,133.796611 331.123577,139.654858 C327.360144,145.511862 321.538263,148.366453 316.280167,151.881898 C305.00155,159.422092 295.410394,171.019333 288.90496,184.982978 C286.934148,189.212692 285.193134,194.177792 286.234042,198.914326 C286.77251,201.358988 287.999399,203.445895 289.200971,205.46945 C291.543745,209.413456 293.885546,213.357462 296.226372,217.301468 C300.335477,224.219317 304.564349,231.475046 305.815582,240.005279 C307.067787,248.536754 304.333577,258.694278 297.981992,261.802279 C293.681064,263.906577 288.742349,262.358787 284.742301,259.444571 C280.742253,256.530354 277.410178,252.363993 273.785986,248.735507 C270.003078,244.949261 265.724546,241.653687 260.965969,240.775447 C256.207392,239.898449 250.898662,241.879769 248.129398,246.89083 C244.080664,254.216123 245.585064,264.254395 238.243204,268.482866 C233.455415,271.241807 225.832149,270.132517 221.699675,266.010875 C212.452242,256.786248 207.307097,231.41542 207.01206,217.394634" id="Fill-8" fill="#C6EDFE" mask="url(#mask-2)"></path>
                <path d="M247.260212,258 L101.739788,258 C86.9723609,258 75,242.657281 75,223.731124 L75,116.270116 C75,97.3439584 86.9723609,82 101.739788,82 L247.260212,82 C262.029573,82 274,97.3439584 274,116.270116 L274,223.731124 C274,242.657281 262.029573,258 247.260212,258" id="Fill-10" fill="#3A8CC8" mask="url(#mask-2)"></path>
                <path d="M76,222.290317 L76,116.709683 C76,99.1981246 87.0986047,85 100.791638,85 L245.207392,85 C258.900425,85 270,99.1981246 270,116.709683 L270,222.290317 C270,239.801875 258.900425,254 245.207392,254 L100.791638,254 C87.0986047,254 76,239.801875 76,222.290317" id="Fill-12" fill="#DAF5FF" mask="url(#mask-2)"></path>
                <path d="M136.646105,254 L263,91.7410377 C259.288115,87.5489859 254.423332,85 249.090818,85 L215.503135,85 L87,250.017675 C90.2026005,252.541841 93.9715026,254 98.0051943,254 L136.646105,254 Z" id="Fill-14" fill="#EDF7FF" mask="url(#mask-2)"></path>
                <path d="M169.684907,85 L77,203.817495 L77,227.22015 C77,234.025459 78.9602767,240.240138 82.1902229,245 L207,85 L169.684907,85 Z" id="Fill-16" fill="#EDF7FF" mask="url(#mask-2)"></path>
                <path d="M270,126.335029 L270,112.259773 C270,107.843132 269.164758,103.680534 267.692402,100 L147,254 L169.945833,254 L270,126.335029 Z" id="Fill-18" fill="#EDF7FF" mask="url(#mask-2)"></path>
                <path d="M139.250488,181.426661 C139.996132,183.491262 140.286924,185.769701 140.569856,188.014376 C140.999167,191.420779 141.42946,194.829684 141.858771,198.237338 C141.970765,199.122703 142.081776,200.039331 141.914768,200.91094 C141.73597,201.840073 141.260487,202.624146 140.796792,203.378206 C138.735708,206.727086 136.674624,210.077217 134.612557,213.428598 C129.752604,221.326852 124.294366,229.729064 116.615895,232 C114.997875,225.012121 116.820235,217.509029 119.161304,210.860039 C121.501391,204.213551 124.415202,197.694615 125.107797,190.462885 C125.528266,186.049816 124.544879,177.124889 128.45583,174.65137 C132.322573,172.206612 137.700254,177.124889 139.250488,181.426661" id="Fill-20" fill="#4BB5E7" mask="url(#mask-2)"></path>
                <path d="M116.106866,172.389987 C116.119971,172.834141 116.143371,173.304133 116.332449,173.674467 C116.510295,174.018964 116.805145,174.22197 117.087826,174.411444 C119.160198,175.796812 121.369229,177.219091 123.687777,176.971792 C126.004452,176.724492 128.336104,174.07679 127.95982,171.061214 C127.861537,170.273793 127.592896,169.542969 127.325191,168.826908 C125.874344,164.942709 124.206338,156.918399 119.879069,158.121676 C115.334641,159.387701 115.973014,167.878312 116.106866,172.389987" id="Fill-22" fill="#F29D7E" mask="url(#mask-2)"></path>
                <path d="M106.3328,194.093865 C103.346186,204.524117 100.336079,215.942248 103.076011,226.48004 C104.322146,231.27563 107.349874,235.979935 111.305595,236 C113.636348,236.011197 115.804604,234.364315 117.466771,232.277264 C120.442617,228.540831 122.108699,223.446376 123.422378,218.386935 C126.860264,205.143104 128.390279,191.095215 127.915514,177.154867 C127.883211,176.19825 127.726587,175.035304 127.022761,174.708928 C126.030159,174.251253 124.639147,175.708062 123.628926,175.900636 C122.16156,176.180743 120.837112,175.769335 119.471551,175.106581 C117.889654,174.341287 115.467864,171.393907 113.653968,172.111682 C111.518995,172.955756 110.812231,178.447863 110.148539,180.765002 C108.876952,185.207956 107.604387,189.650911 106.3328,194.093865" id="Fill-24" fill="#59C6ED" mask="url(#mask-2)"></path>
                <path d="M223.363385,252.734289 C222.036542,255.290181 218.972581,254.989049 216.582711,254.989049 L149.628531,254.989049 C150.66731,249.379526 147.033039,244.225434 145.610174,238.752789 C144.86334,235.858435 144.710094,232.781161 144.542298,229.739973 C144.197979,223.65262 143.752788,217.576467 143.201876,211.518978 C142.958428,208.80381 142.627687,205.923143 141.655832,203.546437 C141.286295,202.629352 140.817826,201.789417 140.223268,201.05774 C139.199038,199.804681 137.877045,199.00581 136.780071,197.851054 C135.685038,196.696299 134.769438,194.939279 135.051683,193.15115 C135.263125,191.818453 136.076883,190.804309 136.828567,189.84616 C140.348387,185.373972 143.417197,180.318184 145.931216,174.844295 C146.903071,172.718948 147.717799,169.739977 146.328881,168.038953 C143.785765,164.929326 140.324139,165.623672 138.087516,161.163927 C136.407624,157.810408 135.851863,154.081096 137.565702,150.604386 C139.438607,146.795435 143.197027,144.558097 146.099011,142.341912 C149.588764,139.66283 153.232734,136.198563 157.360691,135.474353 C160.109429,134.987812 162.886295,135.836458 165.654431,136.094038 C169.140305,136.425035 172.673704,135.805349 175.963654,134.293466 C180.010138,132.438142 184.587166,129.28123 188.250534,132.161897 C189.270884,132.960769 190.060394,134.152854 191.004121,135.086116 C192.483241,136.548225 194.288252,137.340875 196.040888,138.164634 C201.159128,140.553783 206.144489,143.392142 210.956236,146.653579 C212.39268,147.630393 213.839793,148.661958 214.997871,150.125312 C217.16175,152.857901 218.105477,156.771377 218.919236,160.524332 C219.934736,165.205571 220.882343,169.991336 220.757224,174.844295 C220.634045,179.857775 219.369276,184.698291 218.713614,189.643332 C217.789285,196.529556 218.043403,203.57008 218.291701,210.549631 C218.340197,211.876106 218.397422,213.246134 218.823214,214.461862 C219.173353,215.469785 219.766941,216.329629 220.083133,217.354973 C221.011342,220.383717 219.3266,223.671286 219.298472,226.926501 C219.263555,230.55751 221.26061,233.616119 222.372132,236.958439 C223.492383,240.313202 223.722253,244.028827 223.937574,247.666058 C224.037476,249.398191 224.114099,251.284623 223.363385,252.734289" id="Fill-26" fill="#59C6ED" mask="url(#mask-2)"></path>
                <path d="M213,207.830712 C208.677763,218.700597 206.009488,230.628885 205.194154,242.759243 C204.944701,246.402663 204.82046,250.24692 203.273268,253.324791 C203.157762,253.5552 203.03255,253.78068 202.899573,254 L149.977648,254 C151.018169,248.445541 147.3812,243.342042 145.957278,237.923117 C145.20989,235.058406 145.056529,232.010107 144.888609,228.998772 C144.544034,222.971173 144.098513,216.954663 143.546221,210.956636 C143.302592,208.26812 142.972576,205.41573 142,203.062354 C144.012126,202.45368 147.84031,206.469204 149.450593,207.801141 C155.497649,212.793747 161.008913,218.845989 165.766966,225.732385 C167.66941,228.488668 169.547588,231.4692 172.187715,232.952689 C174.124132,234.035735 176.33815,234.218091 178.197886,235.495814 C181.397099,237.697637 183.47814,242.983491 187.118992,242.958848 C189.102969,242.946527 190.809345,241.256039 192.275004,239.565552 C196.185692,235.038692 199.616886,229.856337 202.458905,224.19345 C205.476609,218.17694 208.088588,211.285615 213,207.830712" id="Fill-28" fill="#4BB5E7" mask="url(#mask-2)"></path>
                <path d="M163.358089,145.511809 C164.172602,146.790393 165.564525,147.183421 166.805819,146.924719 C168.047113,146.664773 169.17962,145.852599 170.284233,145.05535 C172.000659,143.816566 173.718015,142.576539 175.433512,141.336512 C178.047203,139.449731 180.823611,137.340316 182.106747,133.757048 C183.066309,131.075505 183.030976,127.973571 182.977977,125.002233 C182.892435,120.334407 182.806893,115.667825 182.72228,111 C178.843119,111.170395 175.717103,115.253654 173.435353,119.453826 C171.153603,123.652755 169.161954,128.402668 165.855555,131.121524 C164.002447,132.645128 159.886185,133.867743 160.002411,137.434842 C160.047971,138.87387 162.62726,144.366308 163.358089,145.511809" id="Fill-30" fill="#F29D7E" mask="url(#mask-2)"></path>
                <path d="M149.022525,102.726124 C148.503093,105.761844 148.036665,108.833659 148.001972,111.942813 C147.948005,116.941357 149.010961,121.834106 150.065243,126.644707 C151.164819,131.658188 152.563141,137.180733 156.091229,139.709877 C158.725972,141.596778 162.081558,141.296815 164.781832,139.569231 C167.480179,137.840401 169.586816,134.843266 171.199078,131.554881 C172.841215,128.204263 174.032342,124.506386 175.725555,121.196841 C177.417803,117.887297 179.76151,114.87896 182.741256,113.91684 C183.772409,113.585761 184.877768,113.492412 185.786532,112.785446 C187.374702,111.550746 187.849804,108.8822 187.972193,106.493702 C188.06278,104.708864 187.978939,102.711188 186.999825,101.445372 C186.02071,100.177066 183.903472,100.52557 183.713624,102.299207 C182.851117,97.0517306 183.132516,91.5366533 181.970299,86.3862606 C180.465971,79.7086731 176.447362,74.057928 171.423619,71.5549218 C166.529012,69.1153931 158.096679,68.9635449 154.877937,75.4058921 C151.295882,82.5738746 150.420847,94.5387672 149.022525,102.726124" id="Fill-32" fill="#FFBEA2" mask="url(#mask-2)"></path>
                <path d="M156.899013,77.195349 C159.674983,73.2946174 164.344669,73.3221667 168.428114,73.6389838 C169.275657,73.7041003 170.1367,73.7742258 170.936033,74.1511505 C171.93303,74.6219932 172.761289,75.5386338 173.565443,76.4377431 L179.811619,83.4114748 C180.19634,83.8409936 180.58781,84.2817825 180.840434,84.8528046 C181.145126,85.5440417 181.218406,86.3617553 181.283973,87.1544241 L182.40246,100.504568 C182.447778,101.045537 182.508524,101.629081 182.796824,102.01978 C184.110082,103.795459 186.403946,98.9154743 187.829054,100.535875 C189.867401,104.51675 189.206915,109.563282 186.019225,111.95882 C185.458053,112.380825 184.840956,112.705155 184.37042,113.286195 C183.930739,113.83092 184.092727,115.607851 183.915311,116.360448 C183.51227,118.074766 183.486236,119.174234 184.422488,120.487835 C185.358739,121.802688 186.061651,120.3288 186.945834,118.956344 C187.624641,117.899452 188.057573,116.588356 188.315018,115.253466 C188.831836,112.566157 190.540422,112.334492 191.67723,109.990296 C192.862249,107.547174 193.335677,105.377039 193.788858,102.549479 C194.048231,100.922817 194.309533,99.2961556 194.568907,97.6707464 C194.775248,96.3821901 194.982554,95.0848682 194.998946,93.7687626 C195.023051,91.8227796 194.629652,89.9131116 194.24011,88.0347497 C193.032914,82.2205934 191.415928,75.7327312 187.25149,73.0817364 C187.825197,73.0554393 188.205097,72.0473851 187.869551,71.4438048 C185.724176,70.5033716 183.490093,69.8997913 181.232869,69.6530997 C180.895395,67.2851114 179.036391,65.8901146 177.342268,64.9108619 C173.616547,62.7607636 169.652665,61.0589677 165.575006,61.0013646 C161.498311,60.9437615 157.272163,62.7081695 154.509691,66.6038922 C153.179077,68.4797496 152.232219,70.7726034 151.548592,73.1643843 C150.942101,75.2819243 148.512283,89.5800154 151.34225,90.0433447 C153.206075,90.3488916 155.644571,78.9585048 156.899013,77.195349" id="Fill-34" fill="#5C321A" mask="url(#mask-2)"></path>
                <path d="M137.591708,182.255951 C137.264231,182.693897 136.889971,183.254319 137.030318,183.839483 C137.089264,184.084436 137.229612,184.276192 137.366216,184.458051 C137.668431,184.863831 137.970646,185.270848 138.273796,185.675392 C138.382331,185.821373 138.503966,185.976015 138.658348,185.997047 C138.882904,186.030449 139.066291,185.774362 139.208509,185.540544 C141.828327,181.237789 144.274113,176.749464 146.529963,172.100312 C146.75639,171.632675 146.989367,171.132872 146.999659,170.577399 C147.015565,169.686662 146.471953,168.974072 145.96951,168.380247 C145.295842,167.586007 144.637145,166.659393 143.889562,166 C143.224315,166.64331 142.979175,169.075517 142.701287,170.141927 C142.306443,171.654943 141.880723,173.155588 141.384829,174.615407 C140.435145,177.406383 139.227222,180.068697 137.591708,182.255951" id="Fill-36" fill="#EDFCFF" mask="url(#mask-2)"></path>
                <path d="M171.153962,156.480008 C171.261391,156.682783 171.385933,156.891779 171.565616,156.968908 C171.861284,157.094554 172.159804,156.815893 172.39843,156.553405 L183.798291,143.997516 C184.882091,142.803257 185.998214,141.554262 186.597156,139.874835 C187.797892,136.508519 186.187404,131.971579 183.448433,131 C183.120441,134.870145 180.081048,137.176557 177.397218,138.860959 C175.215358,140.229381 169.22689,142.300673 168.205837,145.581153 C167.253234,148.643929 169.842945,154.010629 171.153962,156.480008" id="Fill-38" fill="#EDFCFF" mask="url(#mask-2)"></path>
                <path d="M160.020209,150.567693 C160.067716,150.994301 160.115222,151.427202 160.261136,151.824866 C160.436458,152.300553 160.742989,152.701993 160.948851,153.162579 C161.451064,154.276291 161.345871,155.683218 162.014358,156.683671 C162.142173,156.876211 162.349167,157.061201 162.549373,156.980661 C162.661353,156.935358 162.734876,156.817065 162.801611,156.707581 C164.809333,153.358895 166.818187,150.010208 168.825909,146.661521 C168.8983,146.54197 168.971822,146.416127 168.993313,146.272665 C169.064574,145.794461 168.55218,145.487404 168.126882,145.381696 C166.755976,145.043178 165.133962,145.065829 164.249433,143.852701 C163.938378,143.424834 163.76758,142.891259 163.488196,142.434449 C162.605929,140.984735 160.191007,140.291339 159.294036,142.019166 C158.400458,143.739442 159.808691,148.648585 160.020209,150.567693" id="Fill-40" fill="#EDFCFF" mask="url(#mask-2)"></path>
                <path d="M159.824119,104.204336 C164.20757,105.19966 168.01338,109.538728 169.268021,114.967206 C169.597267,116.392104 170.022949,118.195819 171.183102,118.364182 C172.218571,118.513976 172.969602,117.188115 173.478082,116.033094 L178.451838,104.727995 C178.77524,103.991405 179.179491,103.1793 179.832138,103.025793 C180.931898,102.768296 181.626431,104.490305 181.803717,105.894158 C182.677485,112.772293 180.514009,119.708613 177.69204,125.683033 C174.740516,131.931044 170.746705,137.839852 165.33363,140.246456 C163.293864,141.155123 161.132335,141.525275 158.98347,141.822386 C156.296901,142.192538 153.134972,142.214821 151.441012,139.540816 C150.5877,138.195148 150.303262,136.42362 150.0461,134.727607 C149.091482,128.449885 146.116579,119.059919 147.256277,112.611358 C148.398896,106.145465 155.205909,103.170635 159.824119,104.204336" id="Fill-42" fill="#452411" mask="url(#mask-2)"></path>
                <path d="M162.753805,116.000078 C162.63677,116.873205 162.578253,117.77048 162.542594,118.679193 C162.388986,121.998857 162.487734,125.436716 160.957136,127.878169 C159.891935,129.565961 158.140982,130.355207 156.565582,129.848107 C154.990182,129.339736 153.667139,127.557895 153.25203,125.38715 C152.782976,122.952053 153.383695,120.185243 152.552564,117.944597 C152.277349,117.198562 151.853097,116.564369 151.596169,115.799271 C150.774181,113.383237 150.8647,111.758992 151.487363,110.710476 C153.026189,108.09999 157.833766,109.016329 160.040972,109.945378 C161.196692,110.434685 162.509678,111.131153 162.889127,112.724897 C163.142398,113.772141 162.902842,114.914705 162.753805,116.000078" id="Fill-44" fill="#FFBEA2" mask="url(#mask-2)"></path>
                <path d="M164.743383,117.054406 C164.621394,117.93431 164.560399,118.838548 164.523231,119.754314 C163.925673,120.001507 163.252826,120.019438 162.617147,119.988699 C161.633607,119.937468 160.654833,119.817073 159.68559,119.627516 C158.791636,119.457171 157.841453,119.171554 157.2296,118.281404 C156.463355,117.1748 156.425233,115.397061 155.638973,114.316073 C154.881305,113.286317 153.498441,113.101883 153,111.723751 C154.60397,109.093005 159.615064,110.016456 161.915708,110.952715 C163.120353,111.445819 164.488921,112.147693 164.884434,113.753806 C165.148426,114.809178 164.898729,115.96061 164.743383,117.054406" id="Fill-46" fill="#F29D7E" mask="url(#mask-2)"></path>
                <polygon id="Fill-48" fill="#AADAE6" mask="url(#mask-2)" points="125.846228 121 124 126.986728 132.296012 133 138 121.966419"></polygon>
                <path d="M143.128806,170.671208 C143.686174,169.474021 144.262154,168.058033 143.87229,166.760148 C143.458916,165.382699 142.177655,164.838184 141.323481,163.839907 C138.663981,160.733187 140.875823,154.784547 139.259552,150.67955 C138.726673,149.326965 137.813725,148.288906 137.097668,147.08053 C134.478331,142.667223 134.655631,136.346871 132.108781,131.863946 C130.089912,128.313409 126.715336,126.512034 123.514141,124.879732 C121.691184,123.94983 119.160007,123.285969 118.140287,125.416788 C117.231258,127.316375 118.350892,130.158296 117.200891,131.835352 C116.727765,132.524077 115.978403,132.810009 115.45434,133.439061 C114.332746,134.78916 114.6129,137.102727 114.979254,139.009773 C113.824356,139.763143 112.625377,140.562511 111.873077,141.903908 C111.118817,143.245304 110.9807,145.297803 111.923034,146.430344 C112.382447,146.984805 113.068137,147.304303 113.300292,148.055187 C113.899782,149.993312 111.128613,150.617391 110.260725,152.3852 C109.487854,153.961559 110.554592,156.063785 111.872097,156.871855 C113.188623,157.681168 114.72359,157.755759 116.047952,158.542695 C119.558687,160.62876 120.242418,166.532645 122.647233,170.390248 C124.455496,173.291842 127.19434,174.941549 129.636377,176.964211 C131.73361,178.703426 134.367641,184.463102 137.222072,182.651782 C139.625907,181.127637 141.774077,173.580261 143.128806,170.671208" id="Fill-50" fill="#FFBEA2" mask="url(#mask-2)"></path>
                <path d="M108.891887,86 L142.375535,102.203387 C142.375535,102.203387 148.385957,105.433178 146.702506,114.710635 C145.020006,123.988091 139.48962,124.011594 135.162649,123.999224 L106.722698,122.062091 C106.722698,122.062091 97.0478487,108.398253 108.891887,86" id="Fill-52" fill="#EEFCFF" mask="url(#mask-2)"></path>
                <path d="M142.659075,101.766532 L139.300988,100 C140.903306,103.160831 141.753534,107.016918 141.529602,111.086251 C141.230728,116.495625 139.101145,121.123939 136,123.999601 C140.045049,124.009696 145.155336,123.902442 146.721075,114.52468 C148.300197,105.061115 142.659075,101.766532 142.659075,101.766532" id="Fill-54" fill="#FE6160" mask="url(#mask-2)"></path>
                <path d="M111.888583,104.120244 C110.676341,123.413967 99.8946643,138.105995 87.8051214,136.934541 C75.7165745,135.763088 66.8991869,119.17348 68.1114283,99.8797562 C69.3226736,80.5860329 80.1053466,65.8940054 92.1938934,67.0654586 C104.28244,68.2356748 113.100824,84.8265204 111.888583,104.120244" id="Fill-56" fill="#18247A" mask="url(#mask-2)"></path>
                <path d="M89.2190797,134 C88.8396255,134 88.4544509,133.980256 88.0749968,133.942002 C77.6533553,132.890637 70.0375771,117.705075 71.098714,100.091007 C72.1169477,83.2185716 80.7614471,70 90.7807528,70 C91.1602069,70 91.5444281,70.0197439 91.9248356,70.0579978 C102.34743,71.1105969 109.963209,86.2949252 108.901118,103.907759 C107.883838,120.782662 99.2393387,134 89.2190797,134" id="Fill-58" fill="#EEFCFF" mask="url(#mask-2)"></path>
                <path d="M110.648074,94.7655572 C101.865039,96.5308065 93,92 93,92 L93,108.175323 C100.552021,109.257764 107.632282,116.942727 107.632282,116.942727 C107.881186,116.991762 108.125267,117.007698 108.367418,116.996666 C109.721919,113.086148 110.613343,108.686509 110.900837,104.002469 C111.09668,100.818891 110.997311,97.7186722 110.648074,94.7655572" id="Fill-60" fill="#AADAE6" mask="url(#mask-2)"></path>
                <path d="M97,100 C97,104.418309 94.7619844,108 92,108 C89.2389446,108 87,104.418309 87,100 C87,95.5816914 89.2389446,92 92,92 C94.7619844,92 97,95.5816914 97,100" id="Fill-62" fill="#FE6160" mask="url(#mask-2)"></path>
                <path d="M93,107 C90.7938719,107 89,104.085665 89,100.500629 C89,96.9168522 90.7938719,94 93,94 C95.2061281,94 97,96.9168522 97,100.500629 C97,104.085665 95.2061281,107 93,107" id="Fill-64" fill="#EA4E4E" mask="url(#mask-2)"></path>
                <path d="M127.343657,110.663419 C123.48013,142.968735 103.628906,165.724994 83.0053561,161.493705 C62.3799042,157.26117 48.7928818,127.64215 52.6564089,95.3368349 C56.5189849,63.0315196 76.3702096,40.2740148 96.9947103,44.5065494 C117.61826,48.737838 131.207185,78.3581042 127.343657,110.663419 Z" id="Stroke-66" stroke="#212882" stroke-width="0.5" stroke-linecap="round" stroke-linejoin="round" stroke-dasharray="0.01,4.028" mask="url(#mask-2)"></path>
                <path d="M135.196985,112.656164 C130.46986,151.25806 106.17799,178.45151 80.9397215,173.394928 C55.7024265,168.337101 39.0752163,132.944764 43.8033145,94.3428681 C48.5294653,55.7409721 72.8213355,28.5475218 98.0586305,33.6053492 C123.296899,38.661931 139.924109,74.0542676 135.196985,112.656164 Z" id="Stroke-68" stroke="#212882" stroke-width="0.5" stroke-linecap="round" stroke-linejoin="round" stroke-dasharray="0,3.994" mask="url(#mask-2)"></path>
                <path d="M68,77 L52,69" id="Stroke-70" stroke="#3A8CC8" stroke-width="4" stroke-linecap="round" stroke-linejoin="round" mask="url(#mask-2)"></path>
                <path d="M61,95.91 L39,95.09" id="Stroke-72" stroke="#FE6160" stroke-width="4" stroke-linecap="round" stroke-linejoin="round" mask="url(#mask-2)"></path>
                <path d="M45,126 L63,117" id="Stroke-74" stroke="#212882" stroke-width="4" stroke-linecap="round" stroke-linejoin="round" mask="url(#mask-2)"></path>
                <mask id="mask-4" fill="white">
                    <use xlink:href="#path-3"></use>
                </mask>
                <g id="Clip-77"></g>
                <polygon id="Fill-76" fill="#18247A" mask="url(#mask-4)" points="154 270 195 270 195 258 154 258"></polygon>
                <path d="M239,284 L109,284 L109,281.565543 C109,275.178527 113.032877,270 118.006888,270 L229.993112,270 C234.968095,270 239,275.178527 239,281.565543 L239,284 Z" id="Fill-78" fill="#3A8CC8" mask="url(#mask-4)"></path>
                <path d="M108,292.000655 C108,294.209854 92.3294481,296 73,296 C53.6695783,296 38,294.209854 38,292.000655 C38,289.791455 53.6695783,288 73,288 C92.3294481,288 108,289.791455 108,292.000655" id="Fill-79" fill="#C1CDDB" mask="url(#mask-4)"></path>
                <polygon id="Fill-80" fill="#8ECEFB" mask="url(#mask-4)" points="101 290 45 290 49.5217096 217 96.4782904 217"></polygon>
                <path d="M84,224 C84,231.978528 82.0951951,241 72.5,241 C63.1548908,241 61,231.978528 61,224" id="Stroke-81" stroke="#000000" stroke-width="3" stroke-linecap="round" stroke-linejoin="round" mask="url(#mask-4)"></path>
                <path d="M64,224.500677 C64,225.881062 63.3284553,227 62.5,227 C61.6715447,227 61,225.881062 61,224.500677 C61,223.118938 61.6715447,222 62.5,222 C63.3284553,222 64,223.118938 64,224.500677" id="Fill-82" fill="#000000" mask="url(#mask-4)"></path>
                <path d="M87,224.500677 C87,225.881062 86.3284553,227 85.5,227 C84.6715447,227 84,225.881062 84,224.500677 C84,223.118938 84.6715447,222 85.5,222 C86.3284553,222 87,223.118938 87,224.500677" id="Fill-83" fill="#000000" mask="url(#mask-4)"></path>
                <polygon id="Fill-84" fill="#70BBE8" mask="url(#mask-4)" points="100.590122 274 56 275.926593 101 281"></polygon>
                <path d="M315,292.000655 C315,294.209854 294.181123,296 268.5,296 C242.818877,296 222,294.209854 222,292.000655 C222,289.791455 242.818877,288 268.5,288 C294.181123,288 315,289.791455 315,292.000655" id="Fill-85" fill="#C1CDDB" mask="url(#mask-4)"></path>
                <path d="M285.225465,290 L244.774535,290 C238.272123,290 233,283.185655 233,274.778361 L233,161.221639 C233,152.814345 238.272123,146 244.774535,146 L285.225465,146 C291.728836,146 297,152.814345 297,161.221639 L297,274.778361 C297,283.185655 291.728836,290 285.225465,290" id="Fill-86" fill="#FFFFFF" mask="url(#mask-4)"></path>
                <path d="M296,276 L233,276 L233,163.281 C233,154.842165 238.461371,148 245.199413,148 L283.800587,148 C290.537635,148 296,154.842165 296,163.281 L296,276 Z" id="Fill-87" fill="#DAF5FF" mask="url(#mask-4)"></path>
                <path d="M233,173 L233,173 C232.448145,173 232,172.435861 232,171.741167 L232,164.258833 C232,163.564139 232.448145,163 233,163 L233,173 Z" id="Fill-88" fill="#072F75" mask="url(#mask-4)"></path>
                <path d="M297,172 L297,172 C297.551855,172 298,171.435861 298,170.741167 L298,163.260031 C298,162.564139 297.551855,162 297,162 L297,172 Z" id="Fill-89" fill="#072F75" mask="url(#mask-4)"></path>
                <path d="M233,185 L233,185 C232.448145,185 232,184.437058 232,183.741167 L232,176.260031 C232,175.564139 232.448145,175 233,175 L233,185 Z" id="Fill-90" fill="#072F75" mask="url(#mask-4)"></path>
                <path d="M270.06448,286 L259.93552,286 C258.314849,286 257,284.20836 257,282 C257,279.79164 258.314849,278 259.93552,278 L270.06448,278 C271.686095,278 273,279.79164 273,282 C273,284.20836 271.686095,286 270.06448,286" id="Fill-91" fill="#072F75" mask="url(#mask-4)"></path>
                <path d="M289.439757,148 L268.423442,148 L236,190.450755 L236,222 L292,148.683511 C291.213106,148.243934 290.348657,148 289.439757,148" id="Fill-92" fill="#9CDEFF" mask="url(#mask-4)"></path>
                <polygon id="Fill-93" fill="#9CDEFF" mask="url(#mask-4)" points="265.57706 276 296 236.317904 296 216 250 276"></polygon>
                <path d="M233,234.566085 L233,276 L238.066944,276 L296,203.691227 L296,157.021804 C296,156.674589 295.979136,156.334815 295.94635,156 L233,234.566085 Z" id="Fill-94" fill="#9CDEFF" mask="url(#mask-4)"></path>
                <path d="M282.046618,152 L247.954369,152 C245.770436,152 244,149.761418 244,147 L286,147 C286,149.761418 284.229564,152 282.046618,152" id="Fill-95" fill="#FFFFFF" mask="url(#mask-4)"></path>
                <path d="M273.073725,150 L258.925296,150 C258.414721,150 258,149.551451 258,149.000528 C258,148.447493 258.414721,148 258.925296,148 L273.073725,148 C273.585279,148 274,148.447493 274,149.000528 C274,149.551451 273.585279,150 273.073725,150" id="Fill-96" fill="#072F75" mask="url(#mask-4)"></path>
                <path d="M282,148.999478 C282,149.551958 281.775862,150 281.5,150 C281.224138,150 281,149.551958 281,148.999478 C281,148.448042 281.224138,148 281.5,148 C281.775862,148 282,148.448042 282,148.999478" id="Fill-97" fill="#072F75" mask="url(#mask-4)"></path>
                <path d="M273.793836,122.609254 L231.235206,122.609254 L217.264854,146 L217.147554,122.511902 C213.117664,121.842917 210,117.417135 210,112.045288 L210,72.5639654 C210,66.73032 213.674112,62 218.206164,62 L273.793836,62 C278.325888,62 282,66.73032 282,72.5639654 L282,112.045288 C282,117.880182 278.325888,122.609254 273.793836,122.609254" id="Fill-98" fill="#C0D9EF" mask="url(#mask-4)"></path>
                <polygon id="Fill-99" fill="#FFFFFF" mask="url(#mask-4)" points="256 113 266 113 266 72 256 72"></polygon>
                <polygon id="Fill-100" fill="#FFFFFF" mask="url(#mask-4)" points="226 114 236 114 236 93 226 93"></polygon>
                <polygon id="Fill-101" fill="#FFFFFF" mask="url(#mask-4)" points="242 114 252 114 252 85 242 85"></polygon>
                <path d="M222.541933,114 L270.459999,114 C270.757531,114 271,113.776586 271,113.499553 C271,113.223414 270.757531,113 270.459999,113 L222.541933,113 C222.242469,113 222,113.223414 222,113.499553 C222,113.776586 222.242469,114 222.541933,114" id="Fill-102" fill="#FFFFFF" mask="url(#mask-4)"></path>
                <path d="M94,33.5 C94,35.9849218 92.4327169,38 90.4990043,38 C88.5662873,38 87,35.9849218 87,33.5 C87,31.0150782 88.5662873,29 90.4990043,29 C92.4327169,29 94,31.0150782 94,33.5" id="Fill-103" fill="#8ECEFB" mask="url(#mask-4)"></path>
                <path d="M128,69.50064 C128,71.9852084 126.433713,74 124.5,74 C122.567283,74 121,71.9852084 121,69.50064 C121,67.0160717 122.567283,65 124.5,65 C126.433713,65 128,67.0160717 128,69.50064" id="Fill-104" fill="#3A8CC8" mask="url(#mask-4)"></path>
                <path d="M67,145.50064 C67,147.985208 65.4337127,150 63.5,150 C61.5672831,150 60,147.985208 60,145.50064 C60,143.016072 61.5672831,141 63.5,141 C65.4337127,141 67,143.016072 67,145.50064" id="Fill-105" fill="#18247A" mask="url(#mask-4)"></path>
            </g>
        </g>
    </g>
</svg>