<?xml version="1.0" encoding="UTF-8"?>
<svg width="22px" height="18px" viewBox="0 0 22 18" version="1.1" xmlns="http://www.w3.org/2000/svg" xmlns:xlink="http://www.w3.org/1999/xlink">
    <!-- Generator: Sketch 56.3 (81716) - https://sketch.com -->
    <title>twitter</title>
    <desc>Created with Sketch.</desc>
    <g id="Marshmello_landing-page" stroke="none" stroke-width="1" fill="none" fill-rule="evenodd">
        <g id="Mobile" transform="translate(-167.000000, -5101.000000)" fill="#FFFFFF" fill-rule="nonzero">
            <g id="Group-17" transform="translate(0.000000, 4968.000000)">
                <g id="Group-3" transform="translate(127.000000, 131.000000)">
                    <g id="Group">
                        <g id="twitter" transform="translate(40.000000, 2.000000)">
                            <path d="M22,2.13092308 C21.181875,2.49230769 20.310125,2.73184615 19.40125,2.84815385 C20.33625,2.286 21.049875,1.40261538 21.385375,0.337846154 C20.513625,0.861230769 19.551125,1.23092308 18.525375,1.43723077 C17.697625,0.549692308 16.517875,0 15.230875,0 C12.733875,0 10.723625,2.04092308 10.723625,4.54292308 C10.723625,4.90292308 10.753875,5.24907692 10.828125,5.57861538 C7.0785,5.39446154 3.760625,3.58476923 1.53175,0.828 C1.142625,1.50784615 0.914375,2.286 0.914375,3.12369231 C0.914375,4.69661538 1.71875,6.09092308 2.91775,6.89815385 C2.193125,6.88430769 1.48225,6.67246154 0.88,6.33876923 C0.88,6.35261538 0.88,6.37061538 0.88,6.38861538 C0.88,8.59569231 2.443375,10.4289231 4.4935,10.8512308 C4.126375,10.9523077 3.72625,11.0007692 3.311,11.0007692 C3.02225,11.0007692 2.73075,10.9841538 2.457125,10.9232308 C3.0415,12.7218462 4.69975,14.0441538 6.6715,14.0870769 C5.137,15.2958462 3.188625,16.0241538 1.079375,16.0241538 C0.7095,16.0241538 0.35475,16.0075385 0,15.9618462 C1.997875,17.2592308 4.365625,18 6.919,18 C15.2185,18 19.756,11.0769231 19.756,5.076 C19.756,4.87523077 19.749125,4.68138462 19.7395,4.48892308 C20.634625,3.84923077 21.38675,3.05030769 22,2.13092308 Z" id="Path"></path>
                        </g>
                    </g>
                </g>
            </g>
        </g>
    </g>
</svg>